<?xml version="1.0" encoding="utf-8"?>
<!-- Generator: Adobe Illustrator 21.0.2, SVG Export Plug-In . SVG Version: 6.00 Build 0)  -->
<svg version="1.1" id="Icon" xmlns="http://www.w3.org/2000/svg" xmlns:xlink="http://www.w3.org/1999/xlink" x="0px" y="0px"
	 viewBox="0 0 128 128" style="enable-background:new 0 0 128 128;" xml:space="preserve">
<style type="text/css">
	.st0{fill:#E8E030;}
	.st1{fill:#E5C230;}
	.st2{fill:#D91CE8;}
	.st3{fill:#D500DF;}
	.st4{fill:#FFFFFF;}
</style>
<g id="Circle">
	<circle class="st0" cx="64" cy="64" r="64"/>
	<path class="st1" d="M100.9,49.8l-10,3.1L75.4,31.4L56.8,56.6l-31.1,7.9l14.9,24.3l-4.4,6.8l19.3,31.9
		c31.2,4.3,60.8-14.8,69.9-44.9L100.9,49.8z"/>
	<path class="st2" d="M64,0C28.7,0,0,28.7,0,64s28.7,64,64,64s64-28.7,64-64S99.3,0,64,0z M64,122.5C31.7,122.5,5.5,96.3,5.5,64
		S31.7,5.5,64,5.5s58.5,26.2,58.5,58.5S96.3,122.5,64,122.5z M54.8,127.4L54.8,127.4"/>
	<path class="st3" d="M125.2,82.6l-4.2-5.7c-7.1,31.4-38.2,51.1-69.6,44.2l3.8,6.3C86.4,131.7,116.1,112.8,125.2,82.6L125.2,82.6z"
		/>
</g>
<g id="Flower">
	<g id="pet">
		<path class="st3" d="M64,66.4c0,0-13.7-13.6-13.7-27.3c0-8.2,5.5-13.6,13.7-13.6S77.7,31,77.7,39.2C77.7,52.8,64,66.4,64,66.4"/>
		<path class="st4" d="M64,66.4c0,0-9.5-13.6-9.5-24.6c0-6.8,4.1-10.9,9.5-10.9s9.6,4.1,9.6,10.9C73.6,52.8,64,66.4,64,66.4"/>
		<path class="st2" d="M64,66.4c-2.7,0-2.7-27.3,0-27.3C66.7,39.2,66.7,66.4,64,66.4"/>
	</g>
	<g id="pet-2">
		<path class="st3" d="M64,66.4c0,0,8.8-17.2,21.7-21.4c7.8-2.5,14.7,1,17.2,8.8S102,68.5,94.2,71C81.2,75.2,64,66.4,64,66.4"/>
		<path class="st4" d="M64,66.4c0,0,10-13.3,20.4-16.7c6.5-2.1,11.7,0.5,13.3,5.7s-0.9,10.3-7.4,12.5C79.9,71.3,64,66.4,64,66.4"/>
		<path class="st3" d="M64,66.4c-0.8-2.6,25.1-11,26-8.4S64.8,69,64,66.4"/>
	</g>
	<g id="pet-3">
		<path class="st3" d="M64,66.4c0,0,19.1,3,27.1,14.1c4.8,6.6,3.6,14.3-3,19.1s-14.3,3.6-19.1-3C61,85.6,64,66.5,64,66.4"/>
		<path class="st4" d="M64,66.4c0,0,15.8,5.4,22.2,14.3c4,5.5,3.1,11.2-1.3,14.4s-10.1,2.3-14.2-3.2C64.3,83.1,64,66.4,64,66.4"/>
		<path class="st3" d="M64,66.4c2.2-1.6,18.3,20.5,16,22.1S61.8,68.1,64,66.4"/>
	</g>
	<g id="pet-4">
		<path class="st3" d="M64,66.4c0,0,3,19.1-5,30.1c-4.8,6.6-12.4,7.8-19.1,3s-7.8-12.4-3-19.1C44.9,69.5,64,66.4,64,66.4"/>
		<path class="st4" d="M64,66.4c0,0-0.3,16.7-6.7,25.5c-4,5.5-9.7,6.4-14.2,3.2s-5.3-8.9-1.3-14.4C48.3,71.9,64,66.4,64,66.4"/>
		<path class="st3" d="M64,66.4c2.2,1.6-13.8,23.7-16,22.1S61.8,64.8,64,66.4"/>
	</g>
	<g id="pet-5">
		<path class="st3" d="M64,66.4c0,0-17.2,8.8-30.2,4.6c-7.8-2.5-11.3-9.4-8.8-17.2s9.4-11.3,17.2-8.8C55.2,49.3,64,66.4,64,66.4"/>
		<path class="st4" d="M64,66.4c0,0-15.9,4.9-26.3,1.5c-6.5-2.1-9.1-7.3-7.4-12.5s6.8-7.8,13.3-5.7C54,53.1,64,66.4,64,66.4"/>
		<path class="st2" d="M64,66.4C63.2,69,37.2,60.6,38,58S64.8,63.8,64,66.4"/>
	</g>
	<circle class="st3" cx="64" cy="66.4" r="13.7"/>
	<path class="st2" d="M50.3,66.4c0,1.8,0.4,3.7,1.1,5.3c6.9,3,15-0.3,17.9-7.2c1.5-3.4,1.5-7.3,0-10.7c-6.9-3-15,0.3-17.9,7.2
		C50.7,62.8,50.4,64.6,50.3,66.4L50.3,66.4z"/>
</g>
</svg>
