<?xml version="1.0" encoding="utf-8"?>
<!DOCTYPE svg PUBLIC "-//W3C//DTD SVG 1.1//EN" "http://www.w3.org/Graphics/SVG/1.1/DTD/svg11.dtd">
<svg version="1.1" id="Layer_1" xmlns="http://www.w3.org/2000/svg" xmlns:xlink="http://www.w3.org/1999/xlink"
				viewBox="0 0 128 128">
	<def>
		<path id="bracket" d="M42.304,119.3c-3.84,0-7.161-0.26-9.96-0.779c-2.801-0.521-5.121-1.422-6.96-2.701c-1.841-1.279-3.201-2.98-4.08-5.1
			c-0.881-2.121-1.32-4.781-1.32-7.98c0-2.16,0.06-4.139,0.18-5.939s0.259-3.539,0.42-5.221c0.16-1.68,0.3-3.379,0.42-5.1
			c0.12-1.719,0.18-3.578,0.18-5.58c0-1.039-0.24-2.1-0.72-3.18c-0.48-1.08-1.361-2.039-2.64-2.881
			c-1.281-0.839-3.021-1.538-5.22-2.099c-2.201-0.56-4.98-0.841-8.34-0.841V63.5c3.36,0,6.139-0.279,8.34-0.84
			c2.2-0.559,3.939-1.26,5.22-2.1c1.279-0.84,2.16-1.779,2.64-2.82c0.48-1.039,0.72-2.119,0.72-3.24c0-3.759-0.201-7.299-0.6-10.62
			c-0.401-3.318-0.6-7.059-0.6-11.22c0-3.199,0.439-5.859,1.32-7.98c0.879-2.119,2.239-3.819,4.08-5.1
			c1.839-1.279,4.159-2.179,6.96-2.7c2.799-0.519,6.12-0.78,9.96-0.78h8.28v7.56h-5.52c-2.802,0-5.082,0.161-6.841,0.48
			c-1.761,0.32-3.141,0.86-4.14,1.62c-1.001,0.761-1.68,1.76-2.04,3c-0.36,1.241-0.54,2.741-0.54,4.5c0,3.36,0.1,6.72,0.3,10.08
			c0.199,3.36,0.3,6.881,0.3,10.56c0,4.241-0.84,7.38-2.52,9.42c-1.68,2.04-4.641,3.42-8.88,4.14v0.48c4.239,0.72,7.2,2.1,8.88,4.14
			c1.68,2.04,2.52,5.181,2.52,9.419c0,3.84-0.101,7.361-0.3,10.561c-0.201,3.201-0.3,6.561-0.3,10.08c0,1.84,0.18,3.359,0.54,4.561
			c0.36,1.199,1.039,2.178,2.04,2.939c1,0.76,2.379,1.299,4.14,1.621c1.759,0.318,4.039,0.479,6.841,0.479h5.52v7.561H42.304z"/>
		<g id="pet">
			<path fill="#D500DF" d="M0,0 C0,0 -10,-10 -10,-20 C-10,-26 -6,-30 0,-30 C6,-30 10,-26 10,-20 C10,-10 0,0 0,0"/>
			<path fill="#FFFFFF" d="M0,0 C0,0  -7,-10  -7,-18 C -7,-23 -4,-26 0,-26 C4,-26  7,-23  7,-18 C 7,-10 0,0 0,0"/>
			<path fill="#D500DF" d="M0,0 C-2,0 -2,-20 0,-20 C2,-20, 2,0 0,0"/>
		</g>
	</def>
	<g>
		<use xlink:href="#bracket"/>
		<g transform="matrix(-1 0 0 1 124 0)"><use xlink:href="#bracket"/></g>
	</g>
	<g text-anchor="middle" font-size="16" font-weight="bold" font-family="monospace">
	<text x="62" y="40" >js</text>
	<text x="62" y="56" >json</text>
	<text x="62" y="72" >html</text>
	<text x="62" y="88" >css</text>
	<text x="62" y="104" >scss</text>
	</g>
	<g transform="matrix(0.75 0 0 0.75 104 30)">
		<g transform="rotate(0)"><use xlink:href="#pet"/></g>
		<g transform="rotate(72)"><use xlink:href="#pet"/></g>
		<g transform="rotate(144)"><use xlink:href="#pet"/></g>
		<g transform="rotate(216)"><use xlink:href="#pet"/></g>
		<g transform="rotate(288)"><use xlink:href="#pet"/></g>
		<circle fill="#D500DF" cx="0" cy="0" r="10"/>
	</g>
</svg>
