<svg id="Layer_1" data-name="Layer 1" xmlns="http://www.w3.org/2000/svg" viewBox="0 0 128 128"><defs><style>.cls-1{fill:#e8e030;}.cls-2{fill:#e5c230;}.cls-3{fill:#d500df;}.cls-4{fill:#fff;}.cls-5{fill:#d91ce8;}</style></defs><title>Beautify Icon</title><circle class="cls-1" cx="64" cy="64" r="64"/><path class="cls-2" d="M100.88,49.75l-10,3.13-15.5-21.5L56.75,56.63,25.63,64.5,40.5,88.75,36.13,95.5,55.4,127.41a63.91,63.91,0,0,0,69.86-44.87Z"/><g id="pet"><path class="cls-3" d="M64,66.45S50.35,52.8,50.35,39.15C50.35,31,55.81,25.51,64,25.51S77.65,31,77.65,39.15C77.65,52.8,64,66.45,64,66.45"/><path class="cls-4" d="M64,66.45S54.45,52.8,54.45,41.88C54.45,35.06,58.54,31,64,31s9.55,4.09,9.55,10.92C73.55,52.8,64,66.45,64,66.45"/><path class="cls-5" d="M64,66.45c-2.73,0-2.73-27.29,0-27.29s2.73,27.29,0,27.29"/></g><g id="pet-2" data-name="pet"><path class="cls-3" d="M64,66.45S72.76,49.25,85.74,45c7.79-2.53,14.67,1,17.2,8.76S102,68.46,94.18,71C81.2,75.21,64,66.45,64,66.45"/><path class="cls-4" d="M64,66.45s10-13.3,20.41-16.68c6.49-2.11,11.65.52,13.34,5.71s-.94,10.35-7.43,12.46C79.93,71.32,64,66.45,64,66.45"/><path class="cls-3" d="M64,66.45c-.84-2.6,25.11-11,26-8.43S64.84,69,64,66.45"/></g><g id="pet-3" data-name="pet"><path class="cls-3" d="M64,66.45s19.06,3,27.08,14.06c4.81,6.62,3.61,14.25-3,19.06s-14.25,3.61-19.06-3c-8-11-5-30.1-5-30.1"/><path class="cls-4" d="M64,66.45s15.75,5.43,22.17,14.26c4,5.52,3.11,11.24-1.31,14.45s-10.13,2.3-14.15-3.22C64.29,83.1,64,66.45,64,66.45"/><path class="cls-3" d="M64,66.45c2.21-1.6,18.25,20.48,16,22.08S61.79,68.05,64,66.45"/></g><g id="pet-4" data-name="pet"><path class="cls-3" d="M64,66.45s3,19.06-5,30.1c-4.81,6.62-12.44,7.83-19.06,3s-7.83-12.44-3-19.06c8-11,27.08-14.06,27.08-14.06"/><path class="cls-4" d="M64,66.45s-.29,16.66-6.71,25.49c-4,5.52-9.73,6.43-14.15,3.22s-5.32-8.93-1.31-14.45C48.25,71.87,64,66.45,64,66.45"/><path class="cls-3" d="M64,66.45c2.21,1.6-13.83,23.69-16,22.08S61.79,64.84,64,66.45"/></g><g id="pet-5" data-name="pet"><path class="cls-3" d="M64,66.45S46.8,75.21,33.82,71C26,68.46,22.53,61.58,25.06,53.8S34.47,42.5,42.26,45C55.24,49.25,64,66.45,64,66.45"/><path class="cls-4" d="M64,66.45s-15.93,4.87-26.31,1.49c-6.49-2.11-9.12-7.27-7.43-12.46s6.85-7.82,13.34-5.71C54,53.14,64,66.45,64,66.45"/><path class="cls-5" d="M64,66.45C63.16,69,37.2,60.61,38,58s26.8,5.84,26,8.43"/></g><circle class="cls-3" cx="64" cy="66.45" r="13.65"/><path class="cls-5" d="M50.35,66.45a13.6,13.6,0,0,0,1.09,5.35A13.65,13.65,0,0,0,69.35,53.89a13.65,13.65,0,0,0-19,12.55Z"/><path class="cls-5" d="M64,0a64,64,0,1,0,64,64A64,64,0,0,0,64,0Zm0,122.5A58.5,58.5,0,1,1,122.5,64,58.5,58.5,0,0,1,64,122.5Zm-9.25,4.88,0,0"/><path class="cls-3" d="M125.24,82.63,121,76.94a58.49,58.49,0,0,1-69.58,44.2l3.77,6.25a63.92,63.92,0,0,0,70-44.75Z"/></svg>