<?xml version="1.0" encoding="utf-8"?>
<!DOCTYPE svg PUBLIC "-//W3C//DTD SVG 1.1//EN" "http://www.w3.org/Graphics/SVG/1.1/DTD/svg11.dtd">
<svg version="1.1" id="Layer_1" xmlns="http://www.w3.org/2000/svg" xmlns:xlink="http://www.w3.org/1999/xlink" x="0px" y="0px"
	 width="128px" height="128px" viewBox="0 0 128 128" enable-background="new 0 0 128 128" xml:space="preserve">
<g>
	<g>
		<path d="M42.304,119.3c-3.84,0-7.161-0.26-9.96-0.779c-2.801-0.521-5.121-1.422-6.96-2.701c-1.841-1.279-3.201-2.98-4.08-5.1
			c-0.881-2.121-1.32-4.781-1.32-7.98c0-2.16,0.06-4.139,0.18-5.939s0.259-3.539,0.42-5.221c0.16-1.68,0.3-3.379,0.42-5.1
			c0.12-1.719,0.18-3.578,0.18-5.58c0-1.039-0.24-2.1-0.72-3.18c-0.48-1.08-1.361-2.039-2.64-2.881
			c-1.281-0.839-3.021-1.538-5.22-2.099c-2.201-0.56-4.98-0.841-8.34-0.841V63.5c3.36,0,6.139-0.279,8.34-0.84
			c2.2-0.559,3.939-1.26,5.22-2.1c1.279-0.84,2.16-1.779,2.64-2.82c0.48-1.039,0.72-2.119,0.72-3.24c0-3.759-0.201-7.299-0.6-10.62
			c-0.401-3.318-0.6-7.059-0.6-11.22c0-3.199,0.439-5.859,1.32-7.98c0.879-2.119,2.239-3.819,4.08-5.1
			c1.839-1.279,4.159-2.179,6.96-2.7c2.799-0.519,6.12-0.78,9.96-0.78h8.28v7.56h-5.52c-2.802,0-5.082,0.161-6.841,0.48
			c-1.761,0.32-3.141,0.86-4.14,1.62c-1.001,0.761-1.68,1.76-2.04,3c-0.36,1.241-0.54,2.741-0.54,4.5c0,3.36,0.1,6.72,0.3,10.08
			c0.199,3.36,0.3,6.881,0.3,10.56c0,4.241-0.84,7.38-2.52,9.42c-1.68,2.04-4.641,3.42-8.88,4.14v0.48c4.239,0.72,7.2,2.1,8.88,4.14
			c1.68,2.04,2.52,5.181,2.52,9.419c0,3.84-0.101,7.361-0.3,10.561c-0.201,3.201-0.3,6.561-0.3,10.08c0,1.84,0.18,3.359,0.54,4.561
			c0.36,1.199,1.039,2.178,2.04,2.939c1,0.76,2.379,1.299,4.14,1.621c1.759,0.318,4.039,0.479,6.841,0.479h5.52v7.561H42.304z"/>
		<path d="M74.943,119.3v-7.561h5.52c2.719,0,4.959-0.16,6.721-0.479c1.758-0.322,3.158-0.861,4.199-1.621
			c1.039-0.762,1.74-1.74,2.1-2.939c0.359-1.201,0.541-2.721,0.541-4.561c0-3.52-0.102-6.879-0.301-10.08
			c-0.201-3.199-0.301-6.721-0.301-10.561c0-4.238,0.82-7.379,2.461-9.419c1.639-2.04,4.619-3.42,8.939-4.14v-0.48
			c-4.32-0.72-7.301-2.101-8.939-4.14c-1.641-2.04-2.461-5.179-2.461-9.42c0-3.679,0.1-7.2,0.301-10.56
			c0.199-3.36,0.301-6.72,0.301-10.08c0-1.759-0.182-3.259-0.541-4.5c-0.359-1.24-1.061-2.239-2.1-3
			c-1.041-0.76-2.441-1.3-4.199-1.62c-1.762-0.319-4.002-0.48-6.721-0.48h-5.52V16.1h8.279c3.84,0,7.141,0.261,9.9,0.78
			c2.76,0.521,5.059,1.421,6.9,2.7c1.838,1.281,3.197,2.981,4.08,5.1c0.879,2.121,1.318,4.781,1.318,7.98
			c0,4.161-0.199,7.901-0.6,11.22c-0.4,3.321-0.6,6.861-0.6,10.62c0,1.121,0.24,2.201,0.721,3.24c0.479,1.041,1.359,1.98,2.639,2.82
			s3.02,1.541,5.221,2.1c2.199,0.561,4.98,0.84,8.34,0.84v8.399c-3.359,0-6.141,0.281-8.34,0.841
			c-2.201,0.561-3.941,1.26-5.221,2.099c-1.279,0.842-2.16,1.801-2.639,2.881c-0.48,1.08-0.721,2.141-0.721,3.18
			c0,2.002,0.061,3.861,0.18,5.58c0.121,1.721,0.26,3.42,0.42,5.1c0.16,1.682,0.301,3.42,0.42,5.221
			c0.121,1.801,0.18,3.779,0.18,5.939c0,3.199-0.439,5.859-1.318,7.98c-0.883,2.119-2.242,3.82-4.08,5.1
			c-1.842,1.279-4.141,2.18-6.9,2.701c-2.76,0.52-6.061,0.779-9.9,0.779H74.943z"/>
	</g>
	<g>
		<path d="M59.721,46.945c0,0.891-0.131,1.666-0.393,2.326s-0.637,1.207-1.125,1.641s-1.074,0.758-1.758,0.973
			s-1.447,0.322-2.291,0.322c-0.688,0-1.328-0.059-1.922-0.176s-1.082-0.258-1.465-0.422v-2.625
			c0.219,0.117,0.467,0.232,0.744,0.346s0.566,0.215,0.867,0.305s0.607,0.16,0.92,0.211s0.621,0.076,0.926,0.076
			c0.867,0,1.516-0.25,1.945-0.75s0.645-1.234,0.645-2.203v-9.363h-5.66v-2.227h8.566V46.945z M59.955,32.121
			c0,0.258-0.047,0.5-0.141,0.727s-0.225,0.424-0.393,0.592s-0.367,0.301-0.598,0.398s-0.479,0.146-0.744,0.146
			s-0.512-0.049-0.738-0.146s-0.424-0.23-0.592-0.398s-0.299-0.365-0.393-0.592s-0.141-0.469-0.141-0.727s0.047-0.5,0.141-0.727
			s0.225-0.426,0.393-0.598s0.365-0.307,0.592-0.404s0.473-0.146,0.738-0.146s0.514,0.049,0.744,0.146s0.43,0.232,0.598,0.404
			s0.299,0.371,0.393,0.598S59.955,31.863,59.955,32.121z"/>
		<path d="M74.018,43.781c0,0.68-0.15,1.26-0.451,1.74s-0.699,0.871-1.195,1.172s-1.059,0.52-1.688,0.656s-1.271,0.205-1.928,0.205
			c-0.875,0-1.664-0.041-2.367-0.123s-1.367-0.201-1.992-0.357v-2.578c0.734,0.305,1.467,0.525,2.197,0.662s1.42,0.205,2.068,0.205
			c0.75,0,1.311-0.119,1.682-0.357s0.557-0.549,0.557-0.932c0-0.18-0.039-0.344-0.117-0.492s-0.225-0.291-0.439-0.428
			s-0.518-0.277-0.908-0.422s-0.902-0.307-1.535-0.486c-0.586-0.164-1.1-0.35-1.541-0.557s-0.807-0.451-1.096-0.732
			s-0.506-0.607-0.65-0.979s-0.217-0.807-0.217-1.307c0-0.484,0.109-0.941,0.328-1.371s0.545-0.807,0.979-1.131
			s0.975-0.58,1.623-0.768s1.406-0.281,2.273-0.281c0.75,0,1.414,0.039,1.992,0.117s1.09,0.164,1.535,0.258v2.332
			c-0.68-0.219-1.318-0.373-1.916-0.463s-1.189-0.135-1.775-0.135s-1.057,0.105-1.412,0.316s-0.533,0.504-0.533,0.879
			c0,0.18,0.035,0.34,0.105,0.48s0.209,0.277,0.416,0.41s0.496,0.271,0.867,0.416s0.861,0.303,1.471,0.475
			c0.688,0.195,1.266,0.404,1.734,0.627s0.846,0.475,1.131,0.756s0.49,0.602,0.615,0.961S74.018,43.32,74.018,43.781z"/>
		<path d="M54.037,75.628c-0.562,0.227-1.145,0.395-1.746,0.504s-1.23,0.164-1.887,0.164c-0.945,0-1.793-0.129-2.543-0.387
			s-1.387-0.641-1.91-1.148s-0.924-1.137-1.201-1.887s-0.416-1.617-0.416-2.602c0-0.953,0.15-1.816,0.451-2.59
			s0.725-1.434,1.271-1.98s1.205-0.969,1.975-1.266s1.627-0.445,2.572-0.445c0.773,0,1.424,0.041,1.951,0.123
			s1.002,0.186,1.424,0.311v2.777c-0.484-0.242-1.01-0.43-1.576-0.562s-1.104-0.199-1.611-0.199c-0.531,0-1.008,0.09-1.43,0.27
			s-0.777,0.43-1.066,0.75s-0.51,0.709-0.662,1.166s-0.229,0.959-0.229,1.506c0,0.57,0.082,1.082,0.246,1.535
			s0.396,0.838,0.697,1.154s0.662,0.559,1.084,0.727s0.891,0.252,1.406,0.252c0.25,0,0.514-0.018,0.791-0.053
			s0.555-0.086,0.832-0.152s0.551-0.143,0.82-0.229s0.521-0.18,0.756-0.281V75.628z"/>
		<path d="M67.42,72.581c0,0.68-0.15,1.26-0.451,1.74s-0.699,0.871-1.195,1.172s-1.059,0.52-1.688,0.656s-1.271,0.205-1.928,0.205
			c-0.875,0-1.664-0.041-2.367-0.123s-1.367-0.201-1.992-0.357v-2.578c0.734,0.305,1.467,0.525,2.197,0.662s1.42,0.205,2.068,0.205
			c0.75,0,1.311-0.119,1.682-0.357s0.557-0.549,0.557-0.932c0-0.18-0.039-0.344-0.117-0.492s-0.225-0.291-0.439-0.428
			s-0.518-0.277-0.908-0.422s-0.902-0.307-1.535-0.486c-0.586-0.164-1.1-0.35-1.541-0.557s-0.807-0.451-1.096-0.732
			s-0.506-0.607-0.65-0.979s-0.217-0.807-0.217-1.307c0-0.484,0.109-0.941,0.328-1.371s0.545-0.807,0.979-1.131
			s0.975-0.58,1.623-0.768s1.406-0.281,2.273-0.281c0.75,0,1.414,0.039,1.992,0.117s1.09,0.164,1.535,0.258v2.332
			c-0.68-0.219-1.318-0.373-1.916-0.463s-1.189-0.135-1.775-0.135s-1.057,0.105-1.412,0.316s-0.533,0.504-0.533,0.879
			c0,0.18,0.035,0.34,0.105,0.48s0.209,0.277,0.416,0.41s0.496,0.271,0.867,0.416s0.861,0.303,1.471,0.475
			c0.688,0.195,1.266,0.404,1.734,0.627s0.846,0.475,1.131,0.756s0.49,0.602,0.615,0.961S67.42,72.12,67.42,72.581z"/>
		<path d="M80.615,72.581c0,0.68-0.15,1.26-0.451,1.74s-0.699,0.871-1.195,1.172s-1.059,0.52-1.688,0.656s-1.271,0.205-1.928,0.205
			c-0.875,0-1.664-0.041-2.367-0.123s-1.367-0.201-1.992-0.357v-2.578c0.734,0.305,1.467,0.525,2.197,0.662s1.42,0.205,2.068,0.205
			c0.75,0,1.311-0.119,1.682-0.357s0.557-0.549,0.557-0.932c0-0.18-0.039-0.344-0.117-0.492s-0.225-0.291-0.439-0.428
			s-0.518-0.277-0.908-0.422s-0.902-0.307-1.535-0.486c-0.586-0.164-1.1-0.35-1.541-0.557s-0.807-0.451-1.096-0.732
			s-0.506-0.607-0.65-0.979s-0.217-0.807-0.217-1.307c0-0.484,0.109-0.941,0.328-1.371s0.545-0.807,0.979-1.131
			s0.975-0.58,1.623-0.768s1.406-0.281,2.273-0.281c0.75,0,1.414,0.039,1.992,0.117s1.09,0.164,1.535,0.258v2.332
			c-0.68-0.219-1.318-0.373-1.916-0.463s-1.189-0.135-1.775-0.135s-1.057,0.105-1.412,0.316s-0.533,0.504-0.533,0.879
			c0,0.18,0.035,0.34,0.105,0.48s0.209,0.277,0.416,0.41s0.496,0.271,0.867,0.416s0.861,0.303,1.471,0.475
			c0.688,0.195,1.266,0.404,1.734,0.627s0.846,0.475,1.131,0.756s0.49,0.602,0.615,0.961S80.615,72.12,80.615,72.581z"/>
		<path d="M44.908,104.885v-7.758c0-1.305-0.484-1.957-1.453-1.957c-0.484,0-0.947,0.195-1.389,0.586s-0.908,0.922-1.4,1.594v7.535
			h-2.859V88.326h2.859v4.078l-0.141,2.156c0.242-0.289,0.488-0.549,0.738-0.779s0.52-0.424,0.809-0.58s0.602-0.275,0.938-0.357
			s0.707-0.123,1.113-0.123c0.609,0,1.141,0.1,1.594,0.299s0.832,0.48,1.137,0.844s0.533,0.801,0.686,1.312s0.229,1.084,0.229,1.717
			v7.992H44.908z"/>
		<path d="M60.822,104.768c-0.516,0.117-1.035,0.211-1.559,0.281s-1.02,0.105-1.488,0.105c-0.781,0-1.455-0.082-2.021-0.246
			s-1.035-0.414-1.406-0.75s-0.645-0.764-0.82-1.283s-0.264-1.139-0.264-1.857v-5.812h-3.199v-2.227h3.199v-3.047l2.93-0.762v3.809
			h4.629v2.227h-4.629v5.602c0,0.68,0.156,1.193,0.469,1.541s0.836,0.521,1.57,0.521c0.469,0,0.926-0.039,1.371-0.117
			s0.852-0.168,1.219-0.27V104.768z"/>
		<path d="M72.6,104.885v-8.109c0-0.297-0.008-0.557-0.023-0.779s-0.047-0.408-0.094-0.557s-0.115-0.26-0.205-0.334
			s-0.213-0.111-0.369-0.111c-0.242,0-0.48,0.164-0.715,0.492s-0.5,0.887-0.797,1.676v7.723h-2.449v-8.109
			c0-0.297-0.008-0.557-0.023-0.779s-0.047-0.408-0.094-0.557s-0.117-0.26-0.211-0.334s-0.219-0.111-0.375-0.111
			c-0.203,0-0.43,0.164-0.68,0.492s-0.527,0.887-0.832,1.676v7.723H63.26V92.979h2.121l0.047,1.734
			c0.172-0.352,0.344-0.652,0.516-0.902s0.355-0.455,0.551-0.615s0.404-0.275,0.627-0.346s0.475-0.105,0.756-0.105
			c0.664,0,1.17,0.174,1.518,0.521s0.545,0.83,0.592,1.447c0.188-0.352,0.373-0.652,0.557-0.902s0.375-0.455,0.574-0.615
			s0.414-0.275,0.645-0.346s0.486-0.105,0.768-0.105c0.867,0,1.508,0.303,1.922,0.908s0.621,1.502,0.621,2.689v8.543H72.6z"/>
		<path d="M81.236,90.553h-3.363v-2.227h6.293v14.332H87.6v2.227H77.463v-2.227h3.773V90.553z"/>
	</g>
	<g>
		<g>
			<path fill="#FFFFFF" d="M98,26c-1.236-1.514-3.632-2.483-5.096-3.31c-1.465-0.826-2.914-1.24-4.349-1.24
				c-1.634,0-2.988,0.553-4.063,1.658c-1.076,1.105-1.614,2.506-1.614,4.198c0,1.774,0.757,3.228,2.271,4.363
				c1.513,1.136,3.466,1.703,5.856,1.703c0.617,0,1.24-0.045,1.868-0.134c0.628-0.09,1.468-0.04,2.126-0.239 M96,33
				c-2.271,0.877-4.789,3.427-6.114,4.931c-1.325,1.505-1.987,3.103-1.987,4.796c0,1.534,0.562,2.849,1.688,3.944
				s2.476,1.644,4.049,1.644c1.932,0,3.581-0.906,4.946-2.719c1.364-1.813,3.219-5.647,3.418-8.596 M105,26
				c0.777-1.176,1.551-3.086,1.919-4.222c0.368-1.135,0.553-2.29,0.553-3.466c0-1.913-0.528-3.451-1.584-4.617
				c-1.057-1.165-2.44-1.748-4.153-1.748c-1.733,0-3.128,0.583-4.184,1.748c-1.057,1.166-1.584,2.704-1.584,4.617
				c0,1.195,0.189,2.365,0.567,3.511C96.912,22.97,97.241,24.864,98,26 M102,38c0.198,2.948,1.492,5.782,2.857,7.596
				c1.364,1.812,3.013,2.719,4.945,2.719c1.554,0,2.898-0.553,4.034-1.658s1.703-2.416,1.703-3.93c0-1.674-0.662-3.268-1.987-4.781
				c-1.324-1.514-3.282-3.068-5.553-3.945 M108,33c0.658,0.199,1.938,0.149,2.564,0.239c0.628,0.089,1.25,0.134,1.868,0.134
				c2.409,0,4.367-0.567,5.872-1.703c1.504-1.136,2.256-2.589,2.256-4.363c0-1.673-0.538-3.067-1.614-4.184
				c-1.075-1.115-2.431-1.673-4.063-1.673c-1.435,0-2.884,0.414-4.348,1.24c-1.465,0.826-3.3,1.796-4.535,3.31"/>
		</g>
		<g>
			<path fill="#D500DF" d="M108.912,22.147c0.938-0.938,2.085-1.694,3.442-2.271c1.357-0.576,2.67-0.864,3.94-0.864
				c2.109,0,3.877,0.781,5.303,2.344c1.425,1.563,2.139,3.486,2.139,5.771c0,2.266-0.894,4.092-2.681,5.479s-4.175,2.08-7.163,2.08
				c-0.157,0-0.333-0.01-0.527-0.029c-0.195-0.02-0.312-0.029-0.352-0.029l-2.402-0.352l2.08,1.143
				c1.718,0.938,3.091,2.164,4.116,3.677c1.025,1.514,1.538,3.062,1.538,4.644c0,1.992-0.806,3.76-2.417,5.303
				s-3.453,2.314-5.522,2.314c-1.953,0-3.716-0.781-5.288-2.344s-2.563-3.535-2.974-5.918l-0.41-2.344l-0.439,2.344
				c-0.41,2.402-1.396,4.38-2.959,5.933c-1.563,1.553-3.33,2.329-5.303,2.329c-2.07,0-3.911-0.766-5.522-2.3
				c-1.611-1.533-2.417-3.306-2.417-5.317c0-1.602,0.508-3.154,1.523-4.658c1.015-1.504,2.392-2.725,4.131-3.662l2.08-1.143
				l-2.373,0.352c-0.137,0.02-0.298,0.034-0.483,0.044c-0.186,0.011-0.513,0.015-0.981,0.015c-2.735,0-4.966-0.707-6.694-2.124
				c-1.729-1.416-2.593-3.227-2.593-5.435c0-2.304,0.708-4.233,2.124-5.786s3.188-2.329,5.317-2.329c1.27,0,2.588,0.293,3.955,0.879
				c1.366,0.586,2.509,1.338,3.428,2.256l1.67,1.67l-1.025-2.139c-0.371-0.82-0.655-1.665-0.85-2.534
				c-0.195-0.869-0.293-1.753-0.293-2.651c0-2.324,0.708-4.204,2.124-5.64S99.43,8.7,101.734,8.7c2.285,0,4.136,0.718,5.552,2.153
				s2.124,3.315,2.124,5.64c0,0.879-0.099,1.758-0.293,2.637c-0.195,0.879-0.479,1.729-0.85,2.549l-1.025,2.139L108.912,22.147z
				 M97.047,26.278c-1.212-1.484-2.534-2.632-3.97-3.442c-1.436-0.81-2.856-1.216-4.263-1.216c-1.602,0-2.93,0.542-3.984,1.626
				s-1.582,2.457-1.582,4.116c0,1.739,0.742,3.164,2.227,4.277c1.483,1.113,3.398,1.67,5.742,1.67c0.604,0,1.216-0.044,1.831-0.132
				s1.245-0.229,1.89-0.425c-0.059-0.234-0.103-0.464-0.132-0.688c-0.029-0.224-0.044-0.454-0.044-0.688
				c0-0.117,0.005-0.264,0.015-0.439s0.024-0.341,0.044-0.498c-2.325-0.918-3.867-1.577-4.629-1.978
				c-0.762-0.4-1.143-0.747-1.143-1.04l0.059-0.088c0.077-0.136,0.19-0.234,0.337-0.293s0.355-0.088,0.63-0.088
				c0.391,0,1.699,0.264,3.926,0.791c0.684,0.176,1.22,0.303,1.611,0.381c0.176-0.312,0.381-0.615,0.615-0.908
				S96.734,26.611,97.047,26.278z M100.943,38.29c-0.392-0.039-0.767-0.107-1.128-0.205s-0.747-0.254-1.157-0.469
				c-1.543,1.895-2.603,3.131-3.179,3.706c-0.576,0.576-1.011,0.884-1.304,0.923l-0.264-0.117l-0.176-0.41
				c0-0.293,0.176-0.766,0.527-1.421c0.352-0.654,1.182-2.026,2.49-4.116c-0.293-0.254-0.547-0.537-0.762-0.85
				c-0.216-0.312-0.41-0.664-0.586-1.055c-2.227,0.859-3.989,2.026-5.288,3.501c-1.299,1.476-1.948,3.042-1.948,4.702
				c0,1.504,0.552,2.793,1.655,3.867s2.427,1.611,3.97,1.611c1.894,0,3.511-0.889,4.849-2.666S100.748,41.181,100.943,38.29z
				 M105.133,25.341c0.762-1.152,1.323-2.285,1.685-3.398s0.542-2.246,0.542-3.398c0-1.875-0.518-3.384-1.553-4.526
				c-1.036-1.143-2.393-1.714-4.072-1.714c-1.699,0-3.066,0.571-4.102,1.714c-1.036,1.143-1.553,2.651-1.553,4.526
				c0,1.172,0.186,2.319,0.557,3.442c0.37,1.124,0.927,2.241,1.67,3.354c0.508-0.253,0.933-0.439,1.274-0.557
				s0.648-0.195,0.923-0.234c0.156-2.714,0.317-4.463,0.483-5.244c0.166-0.781,0.414-1.172,0.747-1.172
				c0.487,0,0.879,2.002,1.172,6.006c0,0.176,0.01,0.312,0.029,0.41c0.273,0.04,0.581,0.117,0.923,0.234
				S104.624,25.087,105.133,25.341z M102.496,38.29c0.194,2.891,0.962,5.225,2.3,7.002s2.954,2.666,4.849,2.666
				c1.523,0,2.842-0.542,3.955-1.626s1.67-2.368,1.67-3.853c0-1.641-0.649-3.203-1.948-4.688s-3.062-2.656-5.288-3.516
				c-0.157,0.352-0.342,0.679-0.557,0.981c-0.216,0.304-0.469,0.61-0.762,0.923c1.113,1.758,1.885,3.032,2.314,3.823
				c0.429,0.791,0.654,1.353,0.674,1.685l-0.176,0.439l-0.234,0.117c-0.312,0-0.767-0.303-1.362-0.908s-1.646-1.846-3.149-3.721
				c-0.333,0.176-0.674,0.312-1.025,0.41S102.983,38.212,102.496,38.29z M108.502,32.753c0.645,0.195,1.274,0.337,1.89,0.425
				s1.226,0.132,1.831,0.132c2.362,0,4.282-0.557,5.757-1.67s2.212-2.539,2.212-4.277c0-1.641-0.527-3.007-1.582-4.102
				c-1.055-1.094-2.384-1.641-3.984-1.641c-1.406,0-2.827,0.406-4.263,1.216c-1.436,0.811-2.759,1.958-3.97,3.442
				c0.312,0.293,0.591,0.596,0.835,0.908c0.244,0.312,0.443,0.625,0.601,0.938l0.967-0.205c2.617-0.645,4.141-0.967,4.57-0.967
				c0.293,0,0.508,0.029,0.645,0.088c0.136,0.059,0.244,0.157,0.322,0.293l0.059,0.088c0,0.274-0.425,0.635-1.274,1.084
				c-0.85,0.45-2.349,1.094-4.497,1.934c0.019,0.176,0.034,0.342,0.044,0.498s0.015,0.303,0.015,0.439
				c0,0.234-0.015,0.465-0.044,0.688C108.604,32.289,108.561,32.519,108.502,32.753z"/>
		</g>
	</g>
</g>
</svg>
